<?xml version="1.0" encoding="utf-8"?>
<!-- Generator: Adobe Illustrator 21.1.0, SVG Export Plug-In . SVG Version: 6.00 Build 0)  -->
 <!DOCTYPE svg PUBLIC "-//W3C//DTD SVG 1.1//EN" "http://www.w3.org/Graphics/SVG/1.1/DTD/svg11.dtd" [
     <!ENTITY stroke_color "#666666">
     <!ENTITY fill_color "#FFFFFF">
 ]>
<svg version="1.1" id="Layer_1" xmlns="http://www.w3.org/2000/svg" xmlns:xlink="http://www.w3.org/1999/xlink" x="0px" y="0px"
	 viewBox="8 8 60 60" style="enable-background:new 0 0 75 75;" xml:space="preserve" >
<style type="text/css">
	.st0{stroke-width:3.2016;stroke-linecap:round;stroke-linejoin:round;stroke-miterlimit:10;}
	.st1{stroke-width:2.8815;stroke-linejoin:round;stroke-miterlimit:10;}
</style>
<path class="st0" d="M55.7,26.3L36.4,37.5v22.3c-12.3,0-22.3-10-22.3-22.3c0-4.1,1.1-7.9,3-11.1c3.8-6.7,11-11.1,19.3-11.1
	S51.8,19.7,55.7,26.3z" stroke="&stroke_color;" fill="&fill_color;"/>
<path class="st1" d="M61.2,40.2c0,11.1-9,20-20,20v-20l17.4-10C60.2,33.1,61.2,36.5,61.2,40.2z" stroke="&stroke_color;" fill="&stroke_color;"/>
<path d="M31.1,30.1c0.3,0.4,0.1,1.6-0.5,1.8C29.4,32,27.3,32,25.9,32c-0.7,0-1.2-0.3-1.2-0.6c-0.1-0.9,0.8-1.8,1.1-2.3
	c0.8-1.3,1.3-1.9,2-3.2c0.3-0.6,0.9-1.4,0.6-2.2c-0.4-0.9-1.4,0.2-1.8,0.5c-0.5,0.4-1,1.3-1.7,1.4c-0.6,0-0.8-0.4-0.8-0.9
	c0-0.8,1.7-2.2,2.4-2.6c0.8-0.7,3.2-0.8,3.7,0.5c0.3,1.8-0.5,3.3-1.3,4.7c-0.4,0.8-1.2,1.6-1.5,2.7C28.1,30.3,30.3,29.5,31.1,30.1z" fill="&stroke_color;"
	/>
<path d="M27.6,34.2c1,0,2.5-0.1,3.2,0.1c0.6,0.2,0.9,1,0.6,1.6c-0.2,0.6-2.1,0.5-3.1,0.5c-0.6,0-3.4,0.1-4-0.1
	c-0.4-0.2-0.7-0.7-0.6-1.2c0-0.6,0.5-0.8,1-0.8C25.2,34.1,26.5,34.2,27.6,34.2z" fill="&stroke_color;"/>
<path d="M31.1,40.1c0.3,1.1-1.4,2.6-1.8,2.8c0,0,1.5,0.6,1.7,1.5c0.5,1.6-0.4,2.9-1.1,3.6c-0.5,0.5-1.6,1.2-2.7,1.3
	c-0.9,0.2-2.7,0.3-2.8-0.7c-0.1-0.5,0.2-0.9,0.7-1.1c1.1,0,2.2,0.1,3.3-0.7c0.5-0.4,1.1-1,0.9-1.8c-0.3-1.5-3.3-0.5-3.3-1.8
	c-0.1-0.9,0.4-1,1.3-1.4c0.3-0.2,2-0.9,1.9-1.5c-0.1-0.6-1.5-0.4-1.9-0.3c-0.6,0.2-1.5,0.9-2.1,1.1c-0.6,0.1-1.2-0.2-1.3-0.5
	c-0.2-0.8,0.6-1.1,1.1-1.4c0.9-0.5,1.7-0.7,3-0.9C29.1,38.3,31,38.9,31.1,40.1z" fill="&stroke_color;"/>
<path d="M49.3,48.7C49.2,47.9,49,46.7,49,46c0.1-0.6,0.7-0.8,1.3-1.2c1.2-0.8,2.7-1.3,3.1-2.6c0-0.8-0.7-1.3-1.3-1.3
	c-1.2-0.1-2.5,1.5-2.9,2.2c-0.3,0.6-0.2,1.3-0.9,1.5c-0.6,0.1-1.4-0.4-1.5-0.8c-0.1-0.6,0.6-1.9,0.9-2.3c0.9-1.4,3.3-2.9,5.6-2
	c1.1,0.4,2.3,1.3,2.2,2.9c-0.2,2.4-2.9,3.2-4.2,4.5c-0.2,0.8,0.6,2.4-0.4,2.7C50.1,49.6,49.4,49.5,49.3,48.7z M51.5,52.4
	c-0.5,0.8-2.1,0.3-2.2-0.5c-0.1-0.6,0.3-0.9,0.7-1C51.2,50.7,52.1,51.6,51.5,52.4z" fill="&fill_color;"/>
</svg>
