<?xml version="1.0" encoding="utf-8"?>
<!-- Generator: Adobe Illustrator 21.1.0, SVG Export Plug-In . SVG Version: 6.00 Build 0)  -->
<svg version="1.1" xmlns="http://www.w3.org/2000/svg" xmlns:xlink="http://www.w3.org/1999/xlink" x="0px" y="0px"
	 viewBox="0 0 75 75" style="enable-background:new 0 0 75 75;" xml:space="preserve">
<style type="text/css">
	.st0{display:none;}
	.st1{display:inline;fill:none;stroke:#E6E7E8;stroke-width:0.25;stroke-miterlimit:10;}
	.st2{fill:#EEEEEE;stroke:#000000;stroke-width:3.2016;stroke-linecap:round;stroke-linejoin:round;stroke-miterlimit:10;}
	.st3{fill:#EEEEEE;stroke:#000000;stroke-width:2.8815;stroke-linejoin:round;stroke-miterlimit:10;}
	.st4{font-family:'GoodDogNew';}
	.st5{font-size:10.9768px;}
	.st6{font-size:14px;}
</style>
<g id="Layer_1">
	<g class="st0">
		<rect class="st1" width="75" height="75"/>
		<line class="st1" x1="0" y1="12.5" x2="75" y2="12.5"/>
		<line class="st1" x1="0" y1="25" x2="75" y2="25"/>
		<line class="st1" x1="0" y1="37.5" x2="75" y2="37.5"/>
		<line class="st1" x1="0" y1="50" x2="75" y2="50"/>
		<line class="st1" x1="0" y1="62.5" x2="75" y2="62.5"/>
		<line class="st1" x1="62.5" y1="75" x2="62.5" y2="0"/>
		<line class="st1" x1="50" y1="75" x2="50" y2="0"/>
		<line class="st1" x1="37.5" y1="75" x2="37.5" y2="0"/>
		<line class="st1" x1="25" y1="75" x2="25" y2="0"/>
		<line class="st1" x1="12.5" y1="75" x2="12.5" y2="0"/>
	</g>
</g>
<g id="Layer_2">
	<g>
		<g>
			<path class="st2" d="M55.7,26.3L36.4,37.5v22.3c-12.3,0-22.3-10-22.3-22.3c0-4.1,1.1-7.9,3-11.1c3.8-6.7,11-11.1,19.3-11.1
				S51.8,19.7,55.7,26.3z"/>
			<path class="st3" d="M61.2,40.2c0,11.1-9,20-20,20v-20l17.4-10C60.2,33.1,61.2,36.5,61.2,40.2z"/>
			<text transform="matrix(1 0 0 1 25.1191 31.8379)"><tspan x="0" y="0" class="st4 st5">2</tspan><tspan x="-0.3" y="4.6" class="st4 st5">-</tspan><tspan x="-0.1" y="11" class="st4 st5">3</tspan></text>
			<text transform="matrix(1 0 0 1 47.8711 51.6572)" class="st4 st6">?</text>
		</g>
	</g>
</g>
</svg>
