<?xml version="1.0" encoding="utf-8"?>
<!-- Generator: Adobe Illustrator 21.1.0, SVG Export Plug-In . SVG Version: 6.00 Build 0)  -->
<!DOCTYPE svg PUBLIC "-//W3C//DTD SVG 1.1//EN" "http://www.w3.org/Graphics/SVG/1.1/DTD/svg11.dtd" [
     <!ENTITY stroke_color "#666666">
     <!ENTITY fill_color "#FFFFFF">
 ]>
<svg version="1.1" xmlns="http://www.w3.org/2000/svg" xmlns:xlink="http://www.w3.org/1999/xlink" x="0px" y="0px"
	 viewBox="0 0 75 75" style="enable-background:new 0 0 75 75;" xml:space="preserve">
    <path d="M28.6,49.2c-0.5-3.3-1.4-8.6-1.2-11.6c0.6-2.7,3-3.5,5.7-5c4.9-3.3,11.3-5.3,13-11.1c0.2-3.3-2.8-5.5-5.4-5.7
        c-5.2-0.3-10.6,6.3-12.1,9.1c-1.3,2.4-0.8,5.5-3.8,6.2c-2.5,0.5-5.9-1.7-6.3-3.5c-0.6-2.4,2.6-7.9,3.8-9.6c4-6,14-12.1,23.6-8.4
        c4.7,1.8,9.8,5.7,9.4,12.1C54.6,32,43,35.2,37.5,40.7c-0.7,3.6,2.5,10.1-1.9,11.2C32,52.8,29.1,52.5,28.6,49.2z M38,64.7
        c-2.3,3.2-8.6,1.2-9.1-1.9c-0.3-2.5,1.1-3.6,3.1-4.2C36.6,57.3,40.4,61.2,38,64.7z" fill="&fill_color;" width="70px;" height="7070px;"/>

</svg>
